<?xml version="1.0" encoding="utf-8"?>
<!-- Generator: Adobe Illustrator 22.1.0, SVG Export Plug-In . SVG Version: 6.00 Build 0)  -->
<svg version="1.1" id="Layer_1" xmlns="http://www.w3.org/2000/svg" xmlns:xlink="http://www.w3.org/1999/xlink" x="0px" y="0px"
	 viewBox="0 0 768 153.9" style="enable-background:new 0 0 768 153.9;" xml:space="preserve">
<style type="text/css">
	.st0{fill:#999999;}
</style>
<title></title>
<g id="icomoon-ignore">
</g>
<path class="st0" d="M61.6,43.1c-10.8,0-20,3.1-26.2,6.2c-7.7,4.6-13.9,9.2-20,16.9C10.8,72.3,6.2,80,4.6,87.7
	C1.5,95.4,0,103.1,0,110.8c0,13.9,3.1,23.1,10.8,30.8c7.7,9.2,18.5,12.3,33.9,12.3c6.2,0,10.8,0,15.4-1.5s9.2-1.5,13.9-4.6
	c0-6.2,0-10.8-1.5-13.9c0-1.5-1.5-4.6-3.1-7.7c-4.6,1.5-7.7,3.1-10.8,3.1s-6.2,1.5-9.2,1.5c-6.2,0-10.8-1.5-13.9-4.6
	c-3.1-4.6-6.2-9.2-6.2-16.9c0-6.2,0-10.8,1.5-15.4c1.5-4.6,3.1-9.2,6.2-13.9c3.1-4.6,6.2-7.7,9.2-9.2c4.6-3.1,9.2-3.1,15.4-3.1
	c3.1,0,6.2,0,9.2,1.5c3.1,0,6.2,1.5,9.2,3.1c1.5-3.1,4.6-7.7,4.6-10.8c1.5-4.6,1.5-7.7,1.5-10.8c-3.1-4.6-7.7-4.6-12.3-6.2
	C69.3,44.6,66.2,43.1,61.6,43.1L61.6,43.1z"/>
<path class="st0" d="M138.5,127.7c-1.5,0-3.1,0-4.6,1.5c-1.5,0-3.1,0-3.1,0c-1.5,0-3.1,0-3.1,0c-1.5,0-3.1,0-3.1-1.5
	s-1.5-1.5-1.5-3.1s-1.5-3.1-1.5-4.6s0-3.1,0-6.2L137,32.3c1.5-4.6,3.1-9.2,3.1-12.3s1.5-6.2,1.5-9.2c0-3.1,0-6.2-1.5-7.7
	c-4.6-1.5-9.2-1.5-13.9-1.5c-1.5,0-4.6,0-7.7,0s-6.2,0-7.7,1.5c0,1.5,0,3.1,0,3.1c0,1.5,0,1.5,0,3.1c0,3.1,0,7.7-1.5,13.9
	c0,4.6-1.5,12.3-3.1,18.5l-12.3,70.8c0,3.1,0,4.6-1.5,6.2c0,1.5,0,4.6,0,6.2c0,9.2,3.1,16.9,7.7,21.5s12.3,6.2,21.5,6.2
	c4.6,0,7.7,0,10.8,0s6.2-1.5,7.7-1.5c0-1.5,0-1.5,0-3.1s0-1.5,0-3.1c0-3.1,0-6.2,0-7.7C140.1,132.4,140.1,130.8,138.5,127.7
	L138.5,127.7z"/>
<path class="st0" d="M161.6,55.4c0,3.1-1.5,6.2-1.5,9.2v1.5v1.5h12.3L157,150.8c4.6,1.5,9.2,1.5,13.9,1.5s9.2,0,15.4-1.5l20-104.7
	h-41.6C163.1,49.2,163.1,52.3,161.6,55.4L161.6,55.4z"/>
<path class="st0" d="M213.9,1.5c-3.1,0-4.6-1.5-7.7-1.5s-4.6,0-7.7,0c-1.5,0-4.6,0-7.7,0s-4.6,0-7.7,1.5c-1.5,4.6-3.1,9.2-3.1,13.9
	s-1.5,9.2-1.5,13.9c1.5,0,4.6,0,7.7,1.5c3.1,0,4.6,0,7.7,0c1.5,0,4.6,0,7.7,0s4.6,0,7.7-1.5c1.5-4.6,3.1-9.2,3.1-13.9
	C213.9,10.8,213.9,6.2,213.9,1.5z"/>
<path class="st0" d="M272.4,43.1c-9.2,0-18.5,1.5-26.2,6.2s-13.9,9.2-18.5,15.4c-4.6,6.2-9.2,13.9-12.3,21.5s-4.6,15.4-4.6,24.6
	c0,13.9,3.1,23.1,10.8,30.8s18.5,10.8,33.9,10.8c6.2,0,10.8,0,15.4-1.5s9.2-1.5,13.9-4.6c0-6.2,0-10.8-1.5-13.9s-1.5-6.2-3.1-9.2
	c-4.6,1.5-7.7,3.1-10.8,3.1s-6.2,1.5-9.2,1.5c-6.2,0-10.8-1.5-13.9-4.6s-6.2-9.2-6.2-16.9c0-6.2,0-10.8,1.5-15.4s3.1-9.2,6.2-13.9
	s6.2-7.7,9.2-9.2c4.6-3.1,9.2-3.1,13.9-3.1c3.1,0,6.2,0,9.2,1.5c3.1,0,6.2,1.5,9.2,3.1c1.5-3.1,4.6-7.7,4.6-10.8
	c1.5-4.6,1.5-7.7,1.5-10.8c-1.5-1.5-4.6-1.5-9.2-3.1C281.6,44.6,277,43.1,272.4,43.1L272.4,43.1z"/>
<path class="st0" d="M389.4,44.6c-3.1,0-4.6,0-7.7,0s-4.6,0-7.7,1.5c0,1.5-1.5,4.6-1.5,9.2c-1.5,3.1-4.6,7.7-7.7,13.9L343.2,97
	l20,55.4c3.1,0,4.6,0,7.7,1.5c1.5,0,4.6,0,7.7,0s4.6,0,7.7,0s4.6,0,7.7,0l-20-55.4l20-26.2c4.6-6.2,7.7-10.8,9.2-13.9
	s3.1-7.7,3.1-10.8c-3.1,0-4.6,0-7.7-1.5S392.5,44.6,389.4,44.6L389.4,44.6z"/>
<path class="st0" d="M352.4,10.8c0-3.1,0-6.2-1.5-7.7c-4.6-1.5-9.2-1.5-12.3-1.5c-1.5,0-4.6,0-7.7,0s-6.2,0-7.7,1.5
	c0,1.5,0,3.1,0,3.1c0,1.5,0,1.5,0,3.1c0,7.7-1.5,18.5-3.1,32.3l-18.5,109.3c4.6,1.5,9.2,1.5,13.9,1.5s9.2,0,15.4-1.5l21.5-120
	C350.9,23.1,352.4,16.9,352.4,10.8L352.4,10.8z"/>
<path class="st0" d="M535.6,46.2C535.6,46.2,535.6,47.7,535.6,46.2c0,1.5,0,3.1,0,3.1c0,3.1,0,6.2-1.5,10.8s-3.1,9.2-4.6,13.9
	l-20,46.2l-4.6-73.9c-4.6-1.5-9.2-1.5-15.4-1.5c-4.6,0-9.2,0-13.9,1.5l-30.8,72.3l-1.5-72.3c-3.1,0-4.6-1.5-7.7-1.5s-4.6,0-7.7,0
	c-6.2,0-10.8,0-16.9,1.5l10.8,104.7c1.5,0,4.6,0,7.7,1.5c3.1,0,4.6,0,7.7,0s6.2,0,7.7,0c3.1,0,6.2,0,7.7-1.5l29.2-67.7l6.2,67.7
	c4.6,1.5,9.2,1.5,13.9,1.5c3.1,0,6.2,0,9.2,0c3.1,0,6.2,0,7.7-1.5L557.1,77c3.1-6.2,6.2-12.3,7.7-16.9s1.5-9.2,1.5-13.9l0,0
	c-4.6-1.5-9.2-1.5-15.4-1.5S540.2,44.6,535.6,46.2L535.6,46.2z"/>
<path class="st0" d="M647.9,50.8c-3.1-1.5-6.2-4.6-10.8-4.6c-4.6-1.5-7.7-1.5-12.3-1.5c-9.2-1.5-16.9,1.5-24.6,4.6
	c-7.7,4.6-13.9,9.2-18.5,15.4s-9.2,13.9-12.3,21.5c-3.1,7.7-4.6,15.4-4.6,24.6c0,6.2,1.5,12.3,3.1,18.5c1.5,4.6,4.6,9.2,7.7,12.3
	s9.2,6.2,15.4,9.2c6.2,1.5,12.3,3.1,21.5,3.1c3.1,0,6.2,0,9.2,0s6.2-1.5,9.2-1.5s6.2-1.5,9.2-1.5c3.1-1.5,6.2-1.5,7.7-3.1
	c0-4.6,0-7.7-1.5-12.3c0-4.6-1.5-7.7-4.6-9.2c-4.6,1.5-9.2,3.1-13.9,4.6s-9.2,1.5-13.9,1.5c-6.2,0-12.3-1.5-15.4-4.6
	s-6.2-7.7-6.2-13.9l13.9-1.5c6.2-1.5,12.3-3.1,18.5-4.6s10.8-4.6,16.9-7.7c4.6-3.1,9.2-6.2,10.8-10.8c3.1-4.6,4.6-9.2,4.6-15.4
	c0-4.6-1.5-7.7-3.1-10.8C652.5,55.4,651,52.3,647.9,50.8L647.9,50.8z M627.9,78.5c0,1.5-1.5,3.1-4.6,4.6c-1.5,1.5-4.6,3.1-7.7,4.6
	s-7.7,3.1-12.3,3.1l-9.2,1.5c1.5-3.1,1.5-6.2,3.1-10.8c1.5-3.1,3.1-6.2,6.2-9.2c1.5-3.1,4.6-4.6,7.7-6.2s6.2-3.1,9.2-3.1
	s4.6,1.5,6.2,3.1s3.1,3.1,3.1,6.2S629.5,77,627.9,78.5L627.9,78.5z"/>
<path class="st0" d="M761.8,53.9c-4.6-6.2-12.3-9.2-21.5-9.2c-4.6,0-7.7,0-12.3,1.5c-4.6,0-7.7,1.5-9.2,3.1
	c-3.1,1.5-4.6,3.1-6.2,6.2c-1.5,1.5-3.1,4.6-6.2,6.2l4.6-27.7c1.5-9.2,3.1-15.4,3.1-21.5c0-3.1,0-6.2-1.5-7.7l0,0
	c-7.7,6.2-16.9,10.8-27.7,10.8c0,7.7-1.5,16.9-3.1,27.7l-20,104.7c4.6,1.5,9.2,3.1,15.4,4.6c4.6,1.5,10.8,1.5,16.9,1.5
	c13.9,0,26.2-1.5,35.4-6.2s16.9-9.2,23.1-16.9c6.2-6.2,9.2-15.4,12.3-23.1c3.1-9.2,3.1-16.9,3.1-26.2C768,69.3,766.4,60,761.8,53.9
	L761.8,53.9z M735.7,101.6c-1.5,4.6-3.1,9.2-6.2,13.9s-6.2,7.7-10.8,10.8s-9.2,4.6-15.4,4.6c-1.5,0-3.1,0-4.6,0s-3.1,0-4.6-1.5
	l4.6-26.2c1.5-12.3,4.6-21.5,9.2-26.2s9.2-7.7,15.4-7.7c4.6,0,7.7,1.5,10.8,4.6c1.5,3.1,3.1,7.7,3.1,12.3S737.2,95.4,735.7,101.6
	L735.7,101.6z"/>
</svg>
