<svg xmlns="http://www.w3.org/2000/svg" width="35.885" height="46.715" viewBox="0 0 35.885 46.715">
  <path id="dentista" d="M21.539,24.876c3.279,0,4.8,2.487,5.118,6.02a24.276,24.276,0,0,1-.111,3.5c-.368,4.741-.791,10.566,2.364,10.566,2.672,0,4.041-5.122,4.834-10.961.764-5.78-.047-8.656.353-11.223.759-4.863,5-9.223,3.692-15.423-.727-3.44-2.622-5.057-4.5-5.738C28.972.05,26.18,3.08,21.539,3.08S14.109.05,9.786,1.622c-1.874.68-3.77,2.3-4.5,5.738-1.308,6.2,2.935,10.559,3.7,15.423.4,2.566-.41,5.443.353,11.223.791,5.839,2.163,10.961,4.832,10.961,3.153,0,2.733-5.825,2.365-10.566a24.45,24.45,0,0,1-.112-3.506C16.741,27.363,18.283,24.876,21.539,24.876Z" transform="translate(-3.597 0.247)" fill="none" stroke="#4e4e4e" stroke-width="3"/>
</svg>
