<svg xmlns="http://www.w3.org/2000/svg" viewBox="0 0 6.89 7.01"><defs><style>.cls-1{fill:#fff;fill-rule:evenodd;}</style></defs><g id="Camada_2" data-name="Camada 2"><g id="Camada_1-2" data-name="Camada 1"><g id="Camada_1-3" data-name="Camada_1"><path class="cls-1" d="M0,3.85A3.94,3.94,0,0,0,.49,5.28a3,3,0,0,0,.89,1A3.38,3.38,0,0,0,6.45,5.17c.36-.67.81-2.47-.07-2.88a.86.86,0,0,0-1.21.59,8.81,8.81,0,0,0,0,.92c-.25,2.38-2.6,2.77-3.23.59C1.75,3.9,1.8,3,1.68,2.73A.88.88,0,0,0,.39,2.36C0,2.65,0,3.21,0,3.85Z"/><path class="cls-1" d="M.65,0a.87.87,0,1,0,.47,1.68A.87.87,0,0,0,.65,0Z"/><path class="cls-1" d="M5.76,0a.87.87,0,0,0,.47,1.68A.87.87,0,0,0,5.76,0Z"/></g></g></g></svg>